<svg width="129" height="36" viewBox="0 0 129 36" fill="none" xmlns="http://www.w3.org/2000/svg">
<path d="M20.423 20.2801H30.1276C30.1985 20.2802 30.2681 20.262 30.3295 20.2271C30.3909 20.1923 30.4419 20.1421 30.4774 20.0817L34.3782 13.3515C34.4107 13.2915 34.427 13.2242 34.4255 13.1561C34.4241 13.0881 34.4048 13.0216 34.3697 12.963C34.3346 12.9044 34.2848 12.8556 34.225 12.8214C34.1652 12.7873 34.0975 12.7688 34.0284 12.7678H16.1013C16.0304 12.7679 15.9607 12.7496 15.8993 12.7148C15.8379 12.6799 15.7869 12.6298 15.7515 12.5693L13.1608 8.12731C13.1283 8.06727 13.112 7.99999 13.1135 7.93195C13.115 7.86391 13.1342 7.7974 13.1693 7.73878C13.2044 7.68017 13.2543 7.63144 13.314 7.59726C13.3738 7.56308 13.4415 7.5446 13.5106 7.5436H37.532C37.6029 7.54372 37.6726 7.52542 37.734 7.49058C37.7954 7.45574 37.8464 7.40557 37.8818 7.34514L41.8063 0.620818C41.8389 0.560774 41.8552 0.493497 41.8537 0.425459C41.8522 0.35742 41.833 0.290903 41.7979 0.232291C41.7627 0.173678 41.7129 0.124944 41.6531 0.0907633C41.5934 0.0565827 41.5257 0.0381063 41.4566 0.0371094H0.39722C0.32811 0.0381063 0.26042 0.0565827 0.200653 0.0907633C0.140886 0.124944 0.0910482 0.173678 0.0559263 0.232291C0.0208043 0.290903 0.00157735 0.35742 9.29888e-05 0.425459C-0.00139137 0.493497 0.014917 0.560774 0.0474503 0.620818L20.5712 35.7951C20.6069 35.8544 20.6576 35.9035 20.7184 35.9376C20.7792 35.9717 20.848 35.9897 20.918 35.9897C20.988 35.9897 21.0568 35.9717 21.1176 35.9376C21.1784 35.9035 21.2291 35.8544 21.2648 35.7951L25.1656 29.1116C25.1999 29.052 25.2179 28.9846 25.2179 28.9161C25.2179 28.8476 25.1999 28.7802 25.1656 28.7206L20.3341 20.4377C20.3227 20.4224 20.316 20.4042 20.3148 20.3853C20.3136 20.3663 20.3179 20.3475 20.3273 20.3309C20.3366 20.3143 20.3506 20.3007 20.3676 20.2917C20.3845 20.2827 20.4038 20.2787 20.423 20.2801Z" fill="white"/>
<path d="M67.2861 28.476L63.7943 22.4755C63.7598 22.4155 63.7099 22.3656 63.6495 22.3307C63.5891 22.2958 63.5205 22.2773 63.4505 22.277H55.5599C55.4906 22.2773 55.4227 22.2955 55.3627 22.3296C55.3028 22.3638 55.2529 22.4129 55.2182 22.4719C55.1834 22.5309 55.1649 22.5978 55.1646 22.666C55.1642 22.7342 55.182 22.8013 55.2161 22.8607L58.1447 27.9156C58.1788 27.975 58.1965 28.0421 58.1962 28.1103C58.1958 28.1785 58.1773 28.2455 58.1426 28.3045C58.1078 28.3635 58.058 28.4125 57.998 28.4467C57.9381 28.4809 57.8701 28.499 57.8008 28.4993H43.0809C43.0116 28.499 42.9436 28.4809 42.8837 28.4467C42.8237 28.4125 42.7739 28.3635 42.7391 28.3045C42.7044 28.2455 42.6859 28.1785 42.6855 28.1103C42.6852 28.0421 42.7029 27.975 42.737 27.9156L54.7655 7.25818C54.7993 7.19942 54.817 7.13306 54.817 7.06555C54.817 6.99804 54.7993 6.93168 54.7655 6.87293L50.8588 0.195297C50.8239 0.135909 50.7738 0.0866072 50.7134 0.0523268C50.6531 0.0180464 50.5846 0 50.5149 0C50.4453 0 50.3768 0.0180464 50.3165 0.0523268C50.2561 0.0866072 50.206 0.135909 50.1711 0.195297L29.6355 35.4163C29.6014 35.4757 29.5836 35.5428 29.584 35.611C29.5844 35.6792 29.6028 35.7461 29.6376 35.8051C29.6723 35.8641 29.7222 35.9132 29.7821 35.9474C29.8421 35.9815 29.9101 35.9997 29.9793 36H70.9972C71.0665 35.9997 71.1345 35.9815 71.1944 35.9474C71.2544 35.9132 71.3042 35.8641 71.339 35.8051C71.3737 35.7461 71.3922 35.6792 71.3926 35.611C71.3929 35.5428 71.3752 35.4757 71.341 35.4163L67.2861 28.476Z" fill="white"/>
<path d="M80.8737 9.86751V12.2899H85.1895V13.9943H80.8737V17.339H78.7158V8.16309H85.7586V9.86751H80.8737Z" fill="white"/>
<path d="M87.0509 8.97418C86.9378 8.8704 86.8476 8.74481 86.7859 8.60522C86.7243 8.46563 86.6924 8.31505 86.6924 8.16282C86.6924 8.0106 86.7243 7.86001 86.7859 7.72042C86.8476 7.58083 86.9378 7.45525 87.0509 7.35147C87.3063 7.12761 87.6401 7.01038 87.9816 7.02459C88.3211 7.01075 88.6534 7.12329 88.9124 7.33979C89.0282 7.43658 89.1207 7.55748 89.1832 7.69375C89.2457 7.83003 89.2768 7.97829 89.274 8.1278C89.2782 8.28607 89.2482 8.44341 89.1858 8.58935C89.1234 8.73529 89.0302 8.86647 88.9124 8.97418C88.6586 9.20124 88.3243 9.32077 87.9816 9.30689C87.6392 9.31951 87.3053 9.20015 87.0509 8.97418V8.97418ZM86.9442 10.2875H89.0191V17.3387H86.9442V10.2875Z" fill="white"/>
<path d="M97.4549 10.9649C97.7457 11.2786 97.9682 11.6476 98.1089 12.0491C98.2496 12.4506 98.3054 12.8762 98.273 13.2997V17.339H96.1981V13.6149C96.2326 13.1676 96.0997 12.7233 95.8247 12.3658C95.6865 12.2233 95.5183 12.1123 95.3319 12.0407C95.1455 11.9691 94.9454 11.9386 94.7457 11.9513C94.5148 11.9406 94.2842 11.9777 94.0688 12.0601C93.8533 12.1426 93.6578 12.2686 93.4948 12.43C93.1553 12.826 92.9872 13.3374 93.0265 13.8542V17.3565H90.9516V10.2819H92.9376V11.1049C93.2218 10.8016 93.5726 10.566 93.9632 10.4162C94.3914 10.2495 94.8484 10.1662 95.3089 10.171C95.7022 10.1564 96.0946 10.2191 96.463 10.3554C96.8315 10.4917 97.1687 10.6989 97.4549 10.9649V10.9649Z" fill="white"/>
<path d="M100.295 8.16309H102.453V15.6054H107.124V17.3565H100.295V8.16309Z" fill="white"/>
<path d="M108.298 8.97418C108.185 8.8704 108.095 8.74481 108.033 8.60522C107.971 8.46563 107.94 8.31505 107.94 8.16282C107.94 8.0106 107.971 7.86001 108.033 7.72042C108.095 7.58083 108.185 7.45525 108.298 7.35147C108.553 7.12761 108.887 7.01038 109.229 7.02459C109.568 7.01075 109.901 7.12329 110.16 7.33979C110.275 7.43658 110.368 7.55748 110.43 7.69375C110.493 7.83003 110.524 7.97829 110.521 8.1278C110.525 8.28607 110.495 8.44341 110.433 8.58935C110.371 8.73529 110.277 8.86647 110.16 8.97418C109.906 9.20124 109.571 9.32077 109.229 9.30689C108.886 9.31951 108.552 9.20015 108.298 8.97418V8.97418ZM108.191 10.2875H110.26V17.3387H108.185L108.191 10.2875Z" fill="white"/>
<path d="M118.702 10.9649C118.993 11.2786 119.216 11.6476 119.356 12.0491C119.497 12.4506 119.553 12.8762 119.52 13.2997V17.339H117.445V13.6149C117.48 13.1676 117.347 12.7233 117.072 12.3658C116.934 12.2233 116.766 12.1123 116.579 12.0407C116.393 11.9691 116.193 11.9386 115.993 11.9513C115.762 11.9406 115.532 11.9777 115.316 12.0601C115.101 12.1426 114.905 12.2686 114.742 12.43C114.403 12.826 114.234 13.3374 114.274 13.8542V17.3565H112.199V10.2819H114.185V11.1049C114.469 10.8016 114.82 10.566 115.21 10.4162C115.639 10.2495 116.096 10.1662 116.556 10.171C116.95 10.1564 117.342 10.2191 117.71 10.3554C118.079 10.4917 118.416 10.6989 118.702 10.9649Z" fill="white"/>
<path d="M128.454 14.3854H123.036C123.123 14.8051 123.371 15.1754 123.729 15.4186C124.13 15.6827 124.605 15.8155 125.087 15.798C125.424 15.8039 125.76 15.7485 126.077 15.6346C126.378 15.5166 126.653 15.3399 126.883 15.1151L127.986 16.2825C127.611 16.6817 127.15 16.9936 126.637 17.1955C126.125 17.3974 125.573 17.4844 125.022 17.4499C124.279 17.4643 123.543 17.3042 122.876 16.983C122.282 16.6966 121.784 16.249 121.441 15.693C121.1 15.1264 120.925 14.4777 120.937 13.8193C120.927 13.1636 121.1 12.5179 121.435 11.9514C121.761 11.4033 122.235 10.9549 122.804 10.6555C123.401 10.3562 124.061 10.2002 124.731 10.2002C125.401 10.2002 126.061 10.3562 126.658 10.6555C127.22 10.9463 127.685 11.39 127.998 11.9339C128.331 12.524 128.499 13.1909 128.484 13.8659C128.484 13.8659 128.478 14.0469 128.454 14.3854ZM123.593 12.1207C123.265 12.3924 123.053 12.7759 123 13.1947H126.557C126.501 12.7786 126.289 12.3979 125.964 12.1265C125.632 11.8549 125.21 11.7118 124.778 11.7237C124.347 11.7101 123.926 11.8512 123.593 12.1207Z" fill="white"/>
<path d="M82.7174 27.2037H79.8778L79.2849 28.5171H78.4965L80.9152 23.2637H81.674L84.1046 28.5171H83.3043L82.7174 27.2037ZM82.4506 26.62L81.3005 24.04L80.1505 26.62H82.4506Z" fill="white"/>
<path d="M88.4501 27.4195C88.457 27.5771 88.4237 27.7339 88.3533 27.8756C88.2829 28.0174 88.1776 28.1395 88.047 28.2309C87.6908 28.4435 87.2769 28.5434 86.8613 28.5169H84.9168V24.536H86.7961C87.1882 24.5155 87.5778 24.6088 87.9165 24.8045C88.0444 24.8846 88.1489 24.9962 88.2196 25.1283C88.2903 25.2603 88.3248 25.4083 88.3197 25.5575C88.324 25.752 88.2636 25.9426 88.1477 26.1003C88.0248 26.2597 87.8582 26.3812 87.6675 26.4506C87.8974 26.4865 88.1052 26.6059 88.2501 26.7853C88.3949 26.9646 88.4663 27.1909 88.4501 27.4195V27.4195ZM85.6223 26.2521H86.719C86.9431 26.2665 87.1664 26.2136 87.3593 26.1003C87.4311 26.0522 87.489 25.9865 87.5274 25.9098C87.5658 25.8331 87.5835 25.7479 87.5786 25.6625C87.5786 25.2734 87.2941 25.0788 86.7249 25.0788H85.6282L85.6223 26.2521ZM87.4838 27.8223C87.5595 27.7759 87.6211 27.7101 87.6618 27.632C87.7025 27.5538 87.7209 27.4663 87.715 27.3786C87.7219 27.2909 87.7066 27.2028 87.6704 27.1223C87.6341 27.0418 87.5782 26.9714 87.5075 26.9175C87.3089 26.8021 87.0794 26.7492 86.8494 26.7658H85.6282V27.9332H86.8139C87.0432 27.9554 87.2744 27.9171 87.4838 27.8223V27.8223Z" fill="white"/>
<path d="M92.6118 25.1665H91.1297V28.517H90.3946V25.1665H88.9185V24.5361H92.6118V25.1665Z" fill="white"/>
<path d="M93.833 28.3008C93.5191 28.1325 93.2586 27.882 93.0802 27.577C92.9027 27.2554 92.8098 26.8952 92.8098 26.5292C92.8098 26.1632 92.9027 25.8031 93.0802 25.4815C93.2573 25.1755 93.5182 24.9247 93.833 24.7577C94.1679 24.5886 94.5387 24.5005 94.915 24.5005C95.2912 24.5005 95.6621 24.5886 95.9969 24.7577C96.3092 24.9261 96.5678 25.1767 96.7438 25.4815C96.9213 25.8031 97.0142 26.1632 97.0142 26.5292C97.0142 26.8952 96.9213 27.2554 96.7438 27.577C96.5668 27.881 96.3084 28.1314 95.9969 28.3008C95.6631 28.4731 95.2918 28.5631 94.915 28.5631C94.5381 28.5631 94.1668 28.4731 93.833 28.3008V28.3008ZM95.6115 27.7579C95.8178 27.641 95.9864 27.469 96.0977 27.2618C96.213 27.0343 96.273 26.7835 96.273 26.5292C96.273 26.2749 96.213 26.0242 96.0977 25.7967C95.9865 25.5909 95.8178 25.4207 95.6115 25.3063C95.3965 25.1924 95.1562 25.1328 94.912 25.1328C94.6678 25.1328 94.4275 25.1924 94.2125 25.3063C94.0072 25.422 93.8388 25.5918 93.7263 25.7967C93.6087 26.0235 93.5474 26.2745 93.5474 26.5292C93.5474 26.7839 93.6087 27.0349 93.7263 27.2618C93.8387 27.4682 94.0069 27.64 94.2125 27.7579C94.4268 27.8739 94.6674 27.9347 94.912 27.9347C95.1566 27.9347 95.3972 27.8739 95.6115 27.7579Z" fill="white"/>
<path d="M100.846 26.7829C100.995 26.9414 101.074 27.1512 101.066 27.3667C101.068 27.5995 100.982 27.8247 100.823 27.9971C100.638 28.1933 100.405 28.3399 100.147 28.4232C99.8361 28.5288 99.5091 28.5801 99.1805 28.5749C98.8821 28.5753 98.585 28.536 98.2972 28.4582C98.026 28.3877 97.7679 28.2754 97.5324 28.1255L97.7518 27.5768C97.9579 27.7018 98.1817 27.7962 98.4158 27.857C98.663 27.9235 98.9183 27.9569 99.1746 27.9562C99.462 27.9705 99.7483 27.9101 100.005 27.7811C100.096 27.7376 100.174 27.6697 100.228 27.5851C100.282 27.5005 100.312 27.4026 100.313 27.3024C100.314 27.2159 100.292 27.1306 100.248 27.0555C100.204 26.9805 100.141 26.9186 100.064 26.8763C99.8491 26.7639 99.6072 26.7114 99.3643 26.7246H98.6232V26.2051H99.3109C99.5352 26.2166 99.7585 26.1682 99.9571 26.065C100.029 26.0275 100.09 25.9712 100.131 25.9022C100.173 25.8332 100.195 25.7542 100.194 25.6739C100.194 25.5848 100.168 25.4978 100.118 25.4232C100.069 25.3486 99.9983 25.2897 99.9156 25.2536C99.6813 25.1425 99.4226 25.0903 99.1627 25.1019C98.72 25.1118 98.2849 25.2174 97.8881 25.4112L97.6925 24.8275C98.1713 24.5858 98.7017 24.4598 99.2398 24.4598C99.5379 24.4552 99.8346 24.5006 100.117 24.594C100.345 24.6713 100.548 24.8038 100.71 24.9793C100.857 25.1384 100.936 25.3478 100.929 25.563C100.931 25.7556 100.861 25.9421 100.734 26.0883C100.591 26.2517 100.407 26.3746 100.2 26.4444C100.444 26.4933 100.669 26.6109 100.846 26.7829Z" fill="white"/>
<path d="M104.925 24.9039C105.082 25.063 105.202 25.2529 105.279 25.4612C105.355 25.6694 105.386 25.8913 105.37 26.1122V28.517H104.676V27.9917C104.548 28.1807 104.367 28.3288 104.154 28.4178C103.899 28.5206 103.624 28.5703 103.348 28.5637C102.958 28.5847 102.572 28.4712 102.257 28.2427C102.132 28.1386 102.032 28.0089 101.963 27.8628C101.894 27.7166 101.859 27.5574 101.859 27.3963C101.859 27.2352 101.894 27.076 101.963 26.9299C102.032 26.7837 102.132 26.6541 102.257 26.5499C102.621 26.3065 103.058 26.1931 103.496 26.2289H104.682V26.0888C104.685 25.9481 104.654 25.8086 104.594 25.6811C104.533 25.5537 104.444 25.4415 104.332 25.3533C104.102 25.1736 103.813 25.0841 103.52 25.1024C103.282 25.1028 103.045 25.1422 102.821 25.2191C102.605 25.285 102.404 25.3899 102.228 25.5285L101.919 24.9856C102.141 24.8132 102.395 24.6843 102.666 24.6062C102.966 24.5161 103.278 24.4709 103.591 24.4719C103.831 24.454 104.073 24.483 104.302 24.5571C104.531 24.6312 104.742 24.7491 104.925 24.9039V24.9039ZM104.196 27.8224C104.399 27.7007 104.556 27.5159 104.64 27.2971V26.7134H103.508C102.888 26.7134 102.577 26.9196 102.577 27.3321C102.577 27.4237 102.598 27.5142 102.639 27.5964C102.68 27.6785 102.74 27.75 102.815 27.8049C103.009 27.9314 103.24 27.9928 103.473 27.98C103.72 27.9924 103.966 27.9379 104.184 27.8224H104.196Z" fill="white"/>
<path d="M106.703 24.536H107.438V27.4546L109.922 24.536H110.586V28.5228H109.851V25.6042L107.379 28.5228H106.703V24.536ZM107.717 23.748C107.61 23.6503 107.526 23.5308 107.47 23.3977C107.415 23.2646 107.39 23.1212 107.397 22.9775H107.889C107.887 23.0619 107.903 23.1458 107.937 23.2234C107.97 23.301 108.021 23.3705 108.085 23.427C108.223 23.5441 108.401 23.6047 108.583 23.5963C108.766 23.605 108.947 23.5445 109.087 23.427C109.15 23.3705 109.201 23.301 109.234 23.2234C109.268 23.1458 109.284 23.0619 109.282 22.9775H109.792C109.799 23.1218 109.774 23.2658 109.718 23.3991C109.661 23.5324 109.575 23.6517 109.466 23.748C109.216 23.9384 108.904 24.0337 108.589 24.0165C108.269 24.0383 107.952 23.9426 107.699 23.748H107.717Z" fill="white"/>
<path d="M116.645 24.5361V28.5229H115.981V25.6043L114.469 28.0617H114.149L112.632 25.6043V28.5229H111.979V24.5361H112.738L114.327 27.227L115.963 24.5361H116.645Z" fill="white"/>
</svg>
